{"title":"Excel Saga","uid":9499594,"size":1941020792,"categoryP":"video","categoryS":"tv_shows","magnet":"?xt=urn:btih:536ffe0b62b5353e2fd630b759c2bc2c9bdae5cc&amp;dn=Excel+Saga&amp;tr=udp%3A%2F%2Ftracker.openbittorrent.com%3A80&amp;tr=udp%3A%2F%2Fopen.demonii.com%3A1337&amp;tr=udp%3A%2F%2Ftracker.coppersurfer.tk%3A6969&amp;tr=udp%3A%2F%2Fexodus.desync.com%3A6969","seeders":1,"leechers":1,"uploader":"p7trick","files":-1,"time":1390189947,"description":"downloaded from eyeonanime\n\nSword Art Online: Extra Edition ENGLISH SUBBED\n_________________________________________________________\n\nFormat                                   : MPEG-4\nFormat profile                           : Base Media\nCodec ID                                 : isom\nFile size                                : 71.6 MiB\nDuration                                 : 24mn 22s\nOverall bit rate                         : 411 Kbps\nWriting application                      : Lavf55.3.100\n\nVideo\nID                                       : 1\nFormat                                   : AVC\nFormat/Info                              : Advanced Video Codec\nFormat profile                           : &lt;a class=&quot;__cf_email__&quot; href=&quot;/cdn-cgi/l/email-protection&quot; data-cfemail=&quot;9ad8fbe9fff6f3f4ffdad6a9b4aa&quot;&gt;[email&amp;#160;protected]&lt;/a&gt;&lt;script cf-hash='f9e31' type=&quot;text/javascript&quot;&gt;\n/* &lt;![CDATA[ */!function(){try{var t=&quot;currentScript&quot;in document?document.currentScript:function(){for(var t=document.getElementsByTagName(&quot;script&quot;),e=t.length;e--;)if(t[e].getAttribute(&quot;cf-hash&quot;))return t[e]}();if(t&amp;&amp;t.previousSibling){var e,r,n,i,c=t.previousSibling,a=c.getAttribute(&quot;data-cfemail&quot;);if(a){for(e=&quot;&quot;,r=parseInt(a.substr(0,2),16),n=2;a.length-n;n+=2)i=parseInt(a.substr(n,2),16)^r,e+=String.fromCharCode(i);e=document.createTextNode(e),c.parentNode.replaceChild(e,c)}}}catch(u){}}();/* ]]&gt; */&lt;/script&gt;\nFormat settings, CABAC                   : No\nFormat settings, ReFrames                : 5 frames\nCodec ID                                 : avc1\nCodec ID/Info                            : Advanced Video Coding\nDuration                                 : 24mn 22s\nBit rate                                 : 278 Kbps\nWidth                                    : 640 pixels\nHeight                                   : 480 pixels\nDisplay aspect ratio                     : 4:3\nFrame rate mode                          : Constant\nFrame rate                               : 23.976 fps\nColor space                              : YUV\nChroma subsampling                       : 4:2:0\nBit depth                                : 8 bits\nScan type                                : Progressive\nBits/(Pixel*Frame)                       : 0.038\nStream size                              : 48.5 MiB (68%)\nWriting library                          : x264 core 130 r2274 c832fe9\n\nAudio\nID                                       : 2\nFormat                                   : AAC\nFormat/Info                              : Advanced Audio Codec\nFormat profile                           : LC\nCodec ID                                 : 40\nDuration                                 : 24mn 22s\nBit rate mode                            : Constant\nBit rate                                 : 128 Kbps\nChannel count                            : 2 channels\nChannel positions                        : Front: L R\nSampling rate                            : 44.1 KHz\nCompression mode                         : Lossy\nStream size                              : 22.3 MiB (31%)\n\n_________________________________________________________\n\nSummary:\nQuack Experimental Anime Excel Saga presents the weird adventures of Excel, a hyper-enthusiastic girl, who is employed by the super-secret organization Across with the aim to take over the world. And she will do anything for her beloved Ilpalazzo, the leader of Across. In this endeavour she is joined by the constantly near-death-skimming Hyatt, the next-door neighbour boys, Nabeshin the director, Menchi the puppy, Pedro the immigrant worker and the Grand Will of the Macrocosm!\n\nFor updates/requests:\nTwitter - @p7tricktorrent\nFacebook - /p7tricktorrent\nTPB - /user/p7trick/\nKAT - /user/i","torrent":{"xt":"urn:btih:536ffe0b62b5353e2fd630b759c2bc2c9bdae5cc","amp;dn":"Excel+Saga","amp;tr":["udp%3A%2F%2Ftracker.openbittorrent.com%3A80","udp%3A%2F%2Fopen.demonii.com%3A1337","udp%3A%2F%2Ftracker.coppersurfer.tk%3A6969","udp%3A%2F%2Fexodus.desync.com%3A6969"],"infoHash":"536ffe0b62b5353e2fd630b759c2bc2c9bdae5cc","infoHashBuffer":{"type":"Buffer","data":[83,111,254,11,98,181,53,62,47,214,48,183,89,194,188,44,155,218,229,204]},"announce":[],"urlList":[]}}